<?xml version="1.0" encoding="UTF-8" standalone="no"?>
<!-- Created with Inkscape (http://www.inkscape.org/) -->

<svg
   xmlns:dc="http://purl.org/dc/elements/1.1/"
   xmlns:cc="http://creativecommons.org/ns#"
   xmlns:rdf="http://www.w3.org/1999/02/22-rdf-syntax-ns#"
   xmlns:svg="http://www.w3.org/2000/svg"
   xmlns="http://www.w3.org/2000/svg"
   xmlns:sodipodi="http://sodipodi.sourceforge.net/DTD/sodipodi-0.dtd"
   xmlns:inkscape="http://www.inkscape.org/namespaces/inkscape"
   version="1.2"
   width="744.09448"
   height="1052.3622"
   id="svg2"
   inkscape:version="0.48.4 r9939"
   sodipodi:docname="example.svg">
  <sodipodi:namedview
     pagecolor="#ffffff"
     bordercolor="#666666"
     borderopacity="1"
     objecttolerance="10"
     gridtolerance="10"
     guidetolerance="10"
     inkscape:pageopacity="0"
     inkscape:pageshadow="2"
     inkscape:window-width="770"
     inkscape:window-height="480"
     id="namedview14"
     showgrid="false"
     inkscape:zoom="0.63429569"
     inkscape:cx="356.98924"
     inkscape:cy="950.14728"
     inkscape:window-x="1101"
     inkscape:window-y="494"
     inkscape:window-maximized="0"
     inkscape:current-layer="svg2" />
  <defs
     id="defs4" />
  <metadata
     id="metadata7">
    <rdf:RDF>
      <cc:Work
         rdf:about="">
        <dc:format>image/svg+xml</dc:format>
        <dc:type
           rdf:resource="http://purl.org/dc/dcmitype/StillImage" />
        <dc:title />
      </cc:Work>
    </rdf:RDF>
  </metadata>
  <g
     id="layer1">
    <g
       transform="translate(28.571429,-111.42857)"
       style="font-size:14px;font-style:normal;font-weight:normal;line-height:125%;letter-spacing:0px;word-spacing:0px;fill:#000000;fill-opacity:1;stroke:none;font-family:Sans"
       id="flowRoot2985">
      <path
         d="m 115.82422,249.66129 0,-45.45703 -16.98047,0 0,-6.08203 40.85156,0 0,6.08203 -17.05078,0 0,45.45703 z"
         style="font-size:72px"
         id="path2992" />
      <path
         d="m 145.91797,249.66129 0,-51.53906 6.32812,0 0,18.49219 c 2.95311,-3.42184 6.67967,-5.13278 11.17969,-5.13282 2.7656,4e-5 5.16794,0.54496 7.20703,1.63477 2.03903,1.08988 3.49802,2.59574 4.37696,4.51758 0.87887,1.9219 1.31832,4.71096 1.31835,8.36718 l 0,23.66016 -6.32812,0 0,-23.66016 c -3e-5,-3.16403 -0.68558,-5.46676 -2.05664,-6.9082 -1.37112,-1.44137 -3.31057,-2.16208 -5.81836,-2.16211 -1.87502,3e-5 -3.63869,0.48636 -5.29102,1.45899 -1.65235,0.97268 -2.83009,2.29104 -3.5332,3.95507 -0.70314,1.66409 -1.0547,3.96096 -1.05469,6.89063 l 0,20.42578 z"
         style="font-size:72px"
         id="path2994" />
      <path
         d="m 186.03125,205.39957 0,-7.27734 6.32812,0 0,7.27734 z m 0,44.26172 0,-37.33594 6.32812,0 0,37.33594 z"
         style="font-size:72px"
         id="path2996" />
      <path
         d="m 199.49609,238.51676 6.25782,-0.98438 c 0.35155,2.50783 1.33006,4.4297 2.93554,5.76563 1.60546,1.33594 3.8496,2.00391 6.73242,2.00391 2.90623,0 5.06248,-0.5918 6.46875,-1.7754 1.40623,-1.18358 2.10935,-2.57225 2.10938,-4.16601 -3e-5,-1.42968 -0.62112,-2.55468 -1.86328,-3.375 -0.86721,-0.56249 -3.02346,-1.27733 -6.46875,-2.14453 -4.64064,-1.17186 -7.85743,-2.18553 -9.65039,-3.04102 -1.79298,-0.85545 -3.15235,-2.03904 -4.07813,-3.55078 -0.92578,-1.51169 -1.38867,-3.18161 -1.38867,-5.00976 0,-1.66404 0.38086,-3.20505 1.14258,-4.62305 0.76171,-1.41794 1.79882,-2.59567 3.11133,-3.5332 0.98436,-0.72653 2.32616,-1.34176 4.02539,-1.84571 1.6992,-0.50387 3.52147,-0.75582 5.46679,-0.75586 2.92967,4e-5 5.50194,0.42192 7.7168,1.26563 2.21482,0.84378 3.84958,1.98636 4.9043,3.42773 1.05466,1.44144 1.78122,3.36917 2.17969,5.78321 l -6.1875,0.84375 c -0.28128,-1.92185 -1.09573,-3.42185 -2.44336,-4.5 -1.34768,-1.0781 -3.25198,-1.61716 -5.71289,-1.61719 -2.90627,3e-5 -4.98048,0.4805 -6.22266,1.4414 -1.2422,0.96097 -1.86329,2.08597 -1.86328,3.375 -1e-5,0.82034 0.2578,1.55862 0.77344,2.21485 0.51561,0.67971 1.3242,1.24221 2.42578,1.6875 0.6328,0.2344 2.49608,0.77346 5.58984,1.61719 4.47654,1.19533 7.59958,2.17384 9.36914,2.93554 1.7695,0.76174 3.15817,1.86916 4.16602,3.32227 1.00778,1.45314 1.51168,3.25782 1.51172,5.41406 -4e-5,2.10938 -0.61527,4.09571 -1.84571,5.95898 -1.2305,1.86329 -3.00588,3.30469 -5.32617,4.32422 -2.32033,1.01953 -4.94533,1.5293 -7.875,1.5293 -4.85157,0 -8.54884,-1.00781 -11.0918,-3.02344 -2.54297,-2.01562 -4.16601,-5.0039 -4.86914,-8.96484 z"
         style="font-size:72px"
         id="path2998" />
      <path
         d="m 258.03125,205.39957 0,-7.27734 6.32812,0 0,7.27734 z m 0,44.26172 0,-37.33594 6.32812,0 0,37.33594 z"
         style="font-size:72px"
         id="path3000" />
      <path
         d="m 271.49609,238.51676 6.25782,-0.98438 c 0.35155,2.50783 1.33006,4.4297 2.93554,5.76563 1.60546,1.33594 3.8496,2.00391 6.73242,2.00391 2.90623,0 5.06248,-0.5918 6.46875,-1.7754 1.40623,-1.18358 2.10935,-2.57225 2.10938,-4.16601 -3e-5,-1.42968 -0.62112,-2.55468 -1.86328,-3.375 -0.86721,-0.56249 -3.02346,-1.27733 -6.46875,-2.14453 -4.64064,-1.17186 -7.85743,-2.18553 -9.65039,-3.04102 -1.79298,-0.85545 -3.15235,-2.03904 -4.07813,-3.55078 -0.92578,-1.51169 -1.38867,-3.18161 -1.38867,-5.00976 0,-1.66404 0.38086,-3.20505 1.14258,-4.62305 0.76171,-1.41794 1.79882,-2.59567 3.11133,-3.5332 0.98436,-0.72653 2.32616,-1.34176 4.02539,-1.84571 1.6992,-0.50387 3.52147,-0.75582 5.46679,-0.75586 2.92967,4e-5 5.50194,0.42192 7.7168,1.26563 2.21482,0.84378 3.84958,1.98636 4.9043,3.42773 1.05466,1.44144 1.78122,3.36917 2.17969,5.78321 l -6.1875,0.84375 c -0.28128,-1.92185 -1.09573,-3.42185 -2.44336,-4.5 -1.34768,-1.0781 -3.25198,-1.61716 -5.71289,-1.61719 -2.90627,3e-5 -4.98048,0.4805 -6.22266,1.4414 -1.2422,0.96097 -1.86329,2.08597 -1.86328,3.375 -1e-5,0.82034 0.2578,1.55862 0.77344,2.21485 0.51561,0.67971 1.3242,1.24221 2.42578,1.6875 0.6328,0.2344 2.49608,0.77346 5.58984,1.61719 4.47654,1.19533 7.59958,2.17384 9.36914,2.93554 1.7695,0.76174 3.15817,1.86916 4.16602,3.32227 1.00778,1.45314 1.51168,3.25782 1.51172,5.41406 -4e-5,2.10938 -0.61527,4.09571 -1.84571,5.95898 -1.2305,1.86329 -3.00588,3.30469 -5.32617,4.32422 -2.32033,1.01953 -4.94533,1.5293 -7.875,1.5293 -4.85157,0 -8.54884,-1.00781 -11.0918,-3.02344 -2.54297,-2.01562 -4.16601,-5.0039 -4.86914,-8.96484 z"
         style="font-size:72px"
         id="path3002" />
      <path
         d="m 354.35937,245.05582 c -2.34377,1.99219 -4.59963,3.39844 -6.76757,4.21875 -2.16799,0.82031 -4.49416,1.23047 -6.97852,1.23047 -4.10157,0 -7.25391,-1.00195 -9.45703,-3.00586 -2.20313,-2.0039 -3.30469,-4.56445 -3.30469,-7.68164 0,-1.82811 0.41602,-3.49803 1.24805,-5.00977 0.83203,-1.5117 1.92187,-2.72459 3.26953,-3.63867 1.34765,-0.91404 2.86523,-1.60545 4.55273,-2.07422 1.24218,-0.3281 3.11718,-0.64451 5.625,-0.94921 5.10936,-0.60936 8.87107,-1.33592 11.28516,-2.17969 0.0234,-0.86717 0.0351,-1.41795 0.0352,-1.65235 -3e-5,-2.57809 -0.59769,-4.3945 -1.79297,-5.44921 -1.61721,-1.42966 -4.01956,-2.1445 -7.20703,-2.14454 -2.97658,4e-5 -5.17385,0.52152 -6.5918,1.56446 -1.41798,1.043 -2.46681,2.8887 -3.14648,5.53711 l -6.1875,-0.84375 c 0.56249,-2.64841 1.48827,-4.78708 2.77734,-6.41602 1.28905,-1.62887 3.15233,-2.88278 5.58984,-3.76172 2.43749,-0.87887 5.26171,-1.31832 8.47266,-1.31836 3.18748,4e-5 5.77732,0.37504 7.76953,1.125 1.99216,0.75004 3.457,1.6934 4.39453,2.83008 0.93747,1.13675 1.59372,2.5723 1.96875,4.30664 0.21091,1.07816 0.31637,3.02347 0.31641,5.83594 l 0,8.4375 c -4e-5,5.88282 0.13473,9.60352 0.4043,11.16211 0.26949,1.5586 0.80269,3.05273 1.5996,4.48242 l -6.60937,0 c -0.65628,-1.3125 -1.07815,-2.84765 -1.26563,-4.60547 z m -0.52734,-14.13281 c -2.2969,0.93752 -5.74221,1.73439 -10.33594,2.39062 -2.60157,0.37502 -4.44142,0.79689 -5.51953,1.26563 -1.07813,0.46876 -1.91016,1.15431 -2.49609,2.05664 -0.58595,0.90236 -0.87892,1.90431 -0.87891,3.00586 -1e-5,1.68751 0.63866,3.09376 1.91602,4.21875 1.27733,1.125 3.14647,1.6875 5.60742,1.6875 2.43748,0 4.60545,-0.5332 6.50391,-1.59961 1.89841,-1.0664 3.29294,-2.52538 4.18359,-4.37695 0.67966,-1.42968 1.0195,-3.53905 1.01953,-6.32813 z"
         style="font-size:72px"
         id="path3004" />
      <path
         d="m 370.07422,249.66129 0,-37.33594 5.69531,0 0,5.3086 c 2.74218,-4.10153 6.70311,-6.15231 11.88281,-6.15235 2.24998,4e-5 4.31834,0.40434 6.20508,1.21289 1.88669,0.80863 3.2988,1.86918 4.23633,3.18164 0.93747,1.31254 1.59372,2.87113 1.96875,4.67579 0.23434,1.1719 0.35153,3.22268 0.35156,6.15234 l 0,22.95703 -6.32812,0 0,-22.71094 c -3e-5,-2.5781 -0.24612,-4.50583 -0.73828,-5.7832 -0.49222,-1.27731 -1.36526,-2.29684 -2.61914,-3.05859 -1.25393,-0.76169 -2.72464,-1.14255 -4.41211,-1.14258 -2.69533,3e-5 -5.0215,0.8555 -6.97852,2.5664 -1.95704,1.71097 -2.93556,4.95706 -2.93555,9.73829 l 0,20.39062 z"
         style="font-size:72px"
         id="path3006" />
      <path
         d="m 428.60937,233.1027 6.4336,-0.5625 c 0.30468,2.57814 1.01366,4.69337 2.12695,6.3457 1.11327,1.65235 2.84178,2.98829 5.18555,4.00781 2.34373,1.01954 4.98045,1.5293 7.91015,1.5293 2.60154,0 4.89841,-0.38671 6.89063,-1.16016 1.99215,-0.77343 3.47457,-1.83397 4.44727,-3.18164 0.97261,-1.34764 1.45894,-2.81834 1.45898,-4.41211 -4e-5,-1.61717 -0.46879,-3.02928 -1.40625,-4.23633 -0.93754,-1.20701 -2.48441,-2.22068 -4.64063,-3.04101 -1.38284,-0.53904 -4.44143,-1.37693 -9.17578,-2.51367 -4.73439,-1.1367 -8.05079,-2.20896 -9.94922,-3.2168 -2.46094,-1.28903 -4.29493,-2.88864 -5.50195,-4.79883 -1.20704,-1.91012 -1.81055,-4.04879 -1.81055,-6.41601 0,-2.60153 0.73828,-5.03316 2.21485,-7.29493 1.47655,-2.26167 3.6328,-3.97846 6.46875,-5.15039 2.83592,-1.17182 5.98826,-1.75776 9.45703,-1.75781 3.82029,5e-5 7.18942,0.61529 10.10742,1.8457 2.91793,1.23052 5.16207,3.04107 6.73242,5.43165 1.57027,2.39066 2.41402,5.09769 2.53125,8.12109 l -6.53906,0.49219 c -0.3516,-3.25778 -1.54105,-5.71871 -3.56836,-7.38282 -2.02737,-1.66401 -5.02151,-2.49604 -8.98242,-2.49609 -4.12502,5e-5 -7.13088,0.75591 -9.01758,2.26758 -1.88673,1.51176 -2.83009,3.33402 -2.83008,5.4668 -10e-6,1.85159 0.66796,3.37503 2.00391,4.57031 1.31248,1.19534 4.74022,2.41995 10.2832,3.67383 5.54294,1.25393 9.34567,2.34963 11.40821,3.28711 2.99996,1.38283 5.2148,3.13478 6.64453,5.25585 1.42964,2.12112 2.14448,4.56448 2.14453,7.33008 -5e-5,2.7422 -0.7852,5.32618 -2.35547,7.75196 -1.57035,2.42578 -3.82621,4.3125 -6.76758,5.66015 -2.94144,1.34766 -6.25198,2.02149 -9.93164,2.02149 -4.66408,0 -8.57228,-0.67969 -11.72461,-2.03907 -3.15235,-1.35937 -5.62501,-3.40429 -7.41797,-6.13476 -1.79297,-2.73046 -2.73633,-5.81835 -2.83008,-9.26367 z"
         style="font-size:72px"
         id="path3008" />
      <path
         d="m 493.75391,249.66129 -19.96875,-51.53906 7.38281,0 13.39453,37.4414 c 1.0781,3.00002 1.98045,5.81251 2.70703,8.4375 0.79685,-2.81249 1.72263,-5.62498 2.77734,-8.4375 l 13.92188,-37.4414 6.96094,0 -20.17969,51.53906 z"
         style="font-size:72px"
         id="path3010" />
      <path
         d="m 551.23437,229.44645 0,-6.04688 21.83204,-0.0352 0,19.125 c -3.35161,2.67187 -6.80864,4.68164 -10.3711,6.02929 -3.56254,1.34766 -7.21878,2.02149 -10.96875,2.02149 -5.06252,0 -9.66213,-1.08399 -13.79883,-3.25196 -4.13673,-2.16796 -7.25977,-5.30272 -9.36914,-9.40429 -2.10938,-4.10155 -3.16406,-8.68358 -3.16406,-13.7461 0,-5.01559 1.04882,-9.69723 3.14649,-14.04492 2.09764,-4.34761 5.11522,-7.57612 9.05273,-9.68555 3.93748,-2.10932 8.47263,-3.16401 13.60547,-3.16406 3.72653,5e-5 7.09567,0.60357 10.10742,1.81055 3.01168,1.20708 5.373,2.88872 7.08398,5.04492 1.71089,2.15629 3.01167,4.96879 3.90235,8.4375 l -6.15235,1.6875 c -0.77348,-2.62496 -1.73441,-4.68746 -2.88281,-6.1875 -1.14848,-1.49996 -2.7891,-2.70113 -4.92187,-3.60352 -2.13285,-0.90229 -4.50003,-1.35346 -7.10157,-1.35351 -3.11721,5e-5 -5.81252,0.47465 -8.08593,1.42383 -2.27346,0.94926 -4.10744,2.19731 -5.50196,3.74414 -1.39454,1.54691 -2.47852,3.24613 -3.25195,5.09765 -1.31251,3.18754 -1.96876,6.64456 -1.96875,10.3711 -10e-6,4.59377 0.79101,8.43752 2.37305,11.53125 1.58201,3.09376 3.88475,5.39063 6.9082,6.89062 3.02342,1.50001 6.23435,2.25001 9.63281,2.25 2.9531,1e-5 5.83591,-0.56835 8.64844,-1.70508 2.81246,-1.13671 4.94527,-2.3496 6.39844,-3.63867 l 0,-9.59765 z"
         style="font-size:72px"
         id="path3012" />
    </g>
    <g
       style="font-size:14px;font-style:normal;font-weight:normal;line-height:125%;letter-spacing:0px;word-spacing:0px;fill:#000000;fill-opacity:1;stroke:none;font-family:Sans"
       id="flowRoot2993" />
  </g>
</svg>
